<?xml version="1.0" encoding="UTF-8" standalone="no"?>
<!-- Created with Inkscape (http://www.inkscape.org/) -->

<svg
   width="24"
   height="24"
   viewBox="0 0 6.3499999 6.35"
   version="1.1"
   id="svg1"
   inkscape:version="1.3.2 (091e20ef0f, 2023-11-25)"
   sodipodi:docname="outline.svg"
   inkscape:export-filename="outline-simple.svg"
   inkscape:export-xdpi="96"
   inkscape:export-ydpi="96"
   xmlns:inkscape="http://www.inkscape.org/namespaces/inkscape"
   xmlns:sodipodi="http://sodipodi.sourceforge.net/DTD/sodipodi-0.dtd"
   xmlns="http://www.w3.org/2000/svg"
   xmlns:svg="http://www.w3.org/2000/svg">
  <sodipodi:namedview
     id="namedview1"
     pagecolor="#ffffff"
     bordercolor="#000000"
     borderopacity="0.25"
     inkscape:showpageshadow="2"
     inkscape:pageopacity="0.0"
     inkscape:pagecheckerboard="0"
     inkscape:deskcolor="#d1d1d1"
     inkscape:document-units="mm"
     inkscape:zoom="15.723007"
     inkscape:cx="-2.1942367"
     inkscape:cy="16.15467"
     inkscape:window-width="1920"
     inkscape:window-height="1039"
     inkscape:window-x="0"
     inkscape:window-y="40"
     inkscape:window-maximized="1"
     inkscape:current-layer="g7" />
  <defs
     id="defs1" />
  <g
     inkscape:label="Base Objects"
     inkscape:groupmode="layer"
     id="layer1"
     style="display:none">
    <rect
       style="fill:none;stroke:#000000;stroke-width:0.312735;stroke-linecap:round;stroke-miterlimit:4.5;stroke-dashoffset:11.85"
       id="rect1"
       width="1.206692"
       height="1.2066916"
       x="3.8322463"
       y="-2.4888253"
       transform="rotate(45)" />
    <circle
       style="fill:none;stroke:#000000;stroke-width:0.396875;stroke-linecap:round;stroke-miterlimit:4.5;stroke-dashoffset:11.85"
       id="path1"
       cx="3.5825756"
       cy="1.8122236"
       r="1.3289819" />
    <circle
       style="fill:none;stroke:#000000;stroke-width:0.396875;stroke-linecap:round;stroke-miterlimit:4.5;stroke-dashoffset:11.85"
       id="circle1"
       cx="4.2562361"
       cy="2.5887835"
       r="1.3289819" />
    <rect
       style="fill:none;stroke:#000000;stroke-width:0.312735;stroke-linecap:round;stroke-miterlimit:4.5;stroke-dashoffset:11.85"
       id="rect2"
       width="1.206692"
       height="1.2066916"
       x="3.8322463"
       y="-2.4888253"
       transform="rotate(45)" />
    <rect
       style="display:inline;fill:none;stroke:#000000;stroke-width:0.396875;stroke-linecap:round;stroke-miterlimit:4.5;stroke-dashoffset:11.85"
       id="rect3"
       width="1.4401947"
       height="3.6204102"
       x="3.5953023"
       y="-0.87404072"
       transform="rotate(45)" />
  </g>
  <g
     inkscape:label="Base Object"
     inkscape:groupmode="layer"
     id="g6"
     style="display:inline">
    <path
       id="circle4"
       style="display:inline;fill:none;stroke:#000000;stroke-width:0.342824;stroke-linecap:round;stroke-miterlimit:4.5;stroke-dashoffset:11.85"
       d="M 5.0510662,0.70273273 C 4.7938896,0.70285654 4.5472751,0.84604058 4.3654465,1.1008026 4.1865636,1.3527928 4.2452449,1.3227113 4.0398901,1.7396432 l -2.2908607,2e-7 C 1.6323912,1.6534496 1.5025073,1.6083963 1.3706329,1.6083878 0.92268289,1.6083583 0.55954248,2.1170308 0.5595636,2.7445008 0.55954242,3.371971 0.92268281,3.8806436 1.3706328,3.880614 1.5683671,3.8802723 1.7592007,3.7787548 1.9072493,3.5951511 h 2.2017662 c 0.045938,0.2137583 0.12877,0.4083682 0.2411702,0.566622 0.3786544,0.5308135 0.9928142,0.5311347 1.3717516,7.173e-4 C 5.9188832,3.886594 6.0216519,3.5054153 6.0040706,3.1160328 l -0.8786585,-1e-7 1e-7,-0.017931 0.043423,-0.9070895 H 5.3065739 6.0167714 C 6.0443856,1.7873789 5.9418568,1.3875635 5.737198,1.1008027 5.555244,0.84586486 5.3084204,0.70266639 5.0510662,0.70273273 Z"
       sodipodi:nodetypes="ccccscccccccccccccc" />
  </g>
  <g
     inkscape:label="Shadow"
     inkscape:groupmode="layer"
     id="g7">
    <path
       id="rect8"
       style="fill:#000000;fill-opacity:1;stroke:none;stroke-width:0.483029;stroke-linecap:round;stroke-miterlimit:4.5;stroke-dasharray:none;stroke-dashoffset:11.85"
       d="M 5.8486498,4.2168252 5.5392481,4.5643449 C 5.1693385,4.8146908 4.7334617,4.7001716 4.4442403,4.27665 4.330793,4.1076723 4.2472101,3.8998802 4.2008864,3.6716587 L 1.9787592,3.6716239 C 1.7956549,3.7880106 0.78390173,3.939002 0.67544679,3.1881043 0.46195945,3.4143285 0.33466761,3.7784947 0.33317192,4.1673108 0.33306652,4.8370888 0.69960829,5.380117 1.1517674,5.3800522 1.3511547,5.3795894 1.5435722,5.2713353 1.6928951,5.0756142 l 2.2221272,3.46e-5 C 3.9614873,5.3036713 4.0451563,5.5112292 4.1586345,5.6799774 4.5406778,6.24667 5.1605243,6.2472728 5.5430693,5.6813274 5.7418561,5.3869418 5.9856379,4.7209018 5.8486498,4.2168252 Z"
       sodipodi:nodetypes="ccccccccccccc" />
  </g>
</svg>
