<svg xmlns="http://www.w3.org/2000/svg"  width="297mm" height="210mm"
             viewBox="-148.5 -105 297 210" >
      <path d="M -56.48780487804878 13.902439024390247 L -56.1219512195122 13.628048780487802 L -55.57317073170732 13.262195121951223 L -55.115853658536594 13.079268292682926 L -54.9329268292683 12.896341463414629 L -54.47560975609757 12.713414634146332 L -54.29268292682927 12.53048780487805 L -54.109756097560975 12.53048780487805 L -53.92682926829268 12.347560975609753 L -53.65243902439025 12.256097560975604 L -53.46951219512195 12.256097560975604 L -53.19512195121952 12.073170731707307 L -52.920731707317074 12.073170731707307 L -52.64634146341464 11.890243902439025 L -52.00609756097562 11.707317073170728 L -51.1829268292683 11.524390243902431 L -50.451219512195124 11.432926829268297 L -47.524390243902445 11.432926829268297 L -46.609756097560975 11.524390243902431 L -45.96951219512195 11.61585365853658 L -44.50609756097562 11.981707317073173 L -43.95731707317073 12.164634146341456 L -43.774390243902445 12.347560975609753 L -43.5 12.347560975609753 L -43.22560975609757 12.53048780487805 L -43.04268292682927 12.53048780487805 L -42.859756097560975 12.713414634146332 L -42.67682926829268 12.713414634146332 L -42.493902439024396 12.80487804878048 L -42.21951219512195 13.079268292682926 L -41.76219512195122 13.262195121951223 L -41.48780487804878 13.536585365853654 L -41.304878048780495 13.536585365853654 L -40.84756097560975 13.902439024390247 L -39.9329268292683 14.817073170731703 L -39.47560975609757 15.36585365853658 L -39.01829268292683 16.006097560975604 L -38.92682926829268 16.28048780487805 L -38.743902439024396 16.463414634146332 L -38.3780487804878 17.195121951219505 L -38.19512195121952 17.74390243902438 L -38.19512195121952 18.109756097560975 L -38.01219512195122 18.384146341463406 L -37.920731707317074 18.75 L -37.829268292682926 19.390243902439025 L -37.829268292682926 22.317073170731703 L -37.920731707317074 22.86585365853658 L -38.10365853658537 23.14024390243901 L -38.10365853658537 23.414634146341456 L -38.28658536585367 23.6890243902439 L -38.28658536585367 23.871951219512198 L -38.3780487804878 24.146341463414643 L -38.5609756097561 24.51219512195121 L -38.743902439024396 24.786585365853654 L -39.109756097560975 25.152439024390247 L -39.29268292682927 25.426829268292693 L -39.29268292682927 25.518292682926813 L -39.5670731707317 25.884146341463406 L -40.298780487804876 26.615853658536594 L -40.75609756097562 26.98170731707316 L -41.85365853658537 27.804878048780495 L -42.1280487804878 27.896341463414643 L -42.3109756097561 28.07926829268291 L -43.22560975609757 28.536585365853654 L -43.40853658536585 28.536585365853654 L -43.6829268292683 28.71951219512195 L -44.23170731707317 28.902439024390247 L -44.41463414634147 28.902439024390247 L -44.6890243902439 29.085365853658544 L -45.14634146341464 29.176829268292693 L -45.51219512195122 29.176829268292693 L -45.78658536585367 29.268292682926813 L -45.8780487804878 29.35975609756096 L -46.335365853658544 29.45121951219511 L -47.15853658536585 29.542682926829258 L -49.26219512195122 29.542682926829258 L -50.451219512195124 29.45121951219511 L -51.640243902439025 29.176829268292693 L -51.91463414634147 29.085365853658544 L -52.1890243902439 28.902439024390247 L -52.554878048780495 28.902439024390247 L -52.829268292682926 28.71951219512195 L -53.01219512195122 28.71951219512195 L -53.3780487804878 28.536585365853654 L -53.5609756097561 28.353658536585357 L -53.835365853658544 28.353658536585357 L -54.201219512195124 28.07926829268291 L -54.75 27.713414634146346 L -55.20731707317073 27.347560975609753 L -55.390243902439025 27.073170731707307 L -55.66463414634147 26.98170731707316 L -55.9390243902439 26.615853658536594 L -56.48780487804878 26.15853658536585 L -56.94512195121952 25.60975609756096 L -57.21951219512195 25.243902439024396 L -57.76829268292683 24.42073170731706 L -58.04268292682927 23.78048780487805 L -58.22560975609757 23.597560975609753 L -58.3170731707317 23.323170731707307 L -58.3170731707317 23.14024390243901 L -58.5 22.86585365853658 L -58.59146341463415 22.59146341463415 L -58.95731707317073 20.853658536585357 L -58.95731707317073 18.201219512195124 L -58.774390243902445 17.195121951219505 L -58.59146341463415 16.920731707317074 L -58.59146341463415 16.737804878048777 L -58.40853658536585 16.1890243902439 L -58.3170731707317 16.006097560975604 L -57.585365853658544 15 ZM -48.07317073170732 4.573170731707322 L -46.79268292682927 4.573170731707322 L -42.859756097560975 4.1158536585365795 L -40.9390243902439 3.8414634146341484 L -39.84146341463415 3.6585365853658516 L -39.75 3.567073170731703 L -39.29268292682927 3.4756097560975547 L -38.65243902439025 3.4756097560975547 L -38.10365853658537 3.3841463414634063 L -38.01219512195122 3.292682926829272 L -35.085365853658544 2.9268292682926784 L -33.6219512195122 2.83536585365853 L -30.329268292682926 2.83536585365853 L -26.762195121951223 2.9268292682926784 L -24.84146341463415 3.1097560975609753 L -24.38414634146342 3.2012195121951237 L -24.292682926829272 3.292682926829272 L -23.743902439024396 3.292682926829272 L -23.19512195121952 3.3841463414634063 L -21.640243902439025 3.75 L -21.548780487804876 3.8414634146341484 L -21.09146341463415 3.8414634146341484 L -20.817073170731703 3.932926829268297 L -19.07926829268294 4.390243902439025 L -18.98780487804879 4.481707317073173 L -18.713414634146346 4.481707317073173 L -18.4390243902439 4.573170731707322 L -18.347560975609753 4.664634146341456 L -17.981707317073187 4.664634146341456 L -17.707317073170742 4.756097560975604 L -17.615853658536594 4.847560975609753 L -17.25 4.847560975609753 L -16.884146341463406 4.939024390243901 L -16.60975609756099 5.121951219512198 L -15.695121951219505 5.396341463414629 L -15.237804878048792 5.487804878048777 L -14.689024390243901 5.487804878048777 L -14.231707317073187 5.579268292682926 L -13.957317073170742 5.670731707317074 L -13.774390243902445 5.762195121951223 L -13.591463414634148 5.945121951219505 L -13.134146341463406 6.036585365853654 L -13.225609756097555 7.957317073170728 L -13.5 8.048780487804876 L -14.506097560975604 8.231707317073173 L -14.963414634146346 8.231707317073173 L -16.426829268292693 8.506097560975604 L -16.701219512195138 8.597560975609753 L -16.792682926829258 8.689024390243901 L -17.34146341463415 8.78048780487805 L -17.79878048780489 8.78048780487805 L -18.164634146341456 8.871951219512198 L -18.256097560975604 8.963414634146332 L -18.713414634146346 8.963414634146332 L -19.07926829268294 9.05487804878048 L -19.17073170731709 9.146341463414629 L -19.628048780487802 9.237804878048777 L -21.274390243902445 9.512195121951223 L -22.097560975609753 9.512195121951223 L -22.646341463414643 9.603658536585357 L -22.737804878048777 9.695121951219505 L -23.743902439024396 9.695121951219505 L -24.38414634146342 9.786585365853654 L -24.47560975609757 9.878048780487802 L -25.57317073170732 9.96951219512195 L -32.70731707317073 9.96951219512195 L -34.53658536585367 9.786585365853654 L -35.451219512195124 9.603658536585357 L -35.54268292682927 9.512195121951223 L -36.1829268292683 9.512195121951223 L -36.45731707317073 9.420731707317074 L -36.548780487804876 9.329268292682926 L -36.91463414634147 9.329268292682926 L -37.28048780487805 9.237804878048777 L -37.3719512195122 9.146341463414629 L -37.829268292682926 9.05487804878048 L -38.28658536585367 9.05487804878048 L -39.01829268292683 8.871951219512198 L -39.109756097560975 8.78048780487805 L -39.5670731707317 8.78048780487805 L -39.84146341463415 8.597560975609753 L -40.390243902439025 8.597560975609753 L -40.84756097560975 8.506097560975604 L -40.9390243902439 8.414634146341456 L -41.39634146341464 8.414634146341456 L -43.3170731707317 8.048780487804876 L -43.59146341463415 7.957317073170728 L -43.6829268292683 7.8658536585365795 L -44.41463414634147 7.8658536585365795 L -44.78048780487805 7.774390243902431 L -44.8719512195122 7.682926829268297 L -45.329268292682926 7.682926829268297 L -45.8780487804878 7.591463414634148 L -46.15243902439025 7.5 L -46.243902439024396 7.408536585365852 L -47.15853658536585 7.408536585365852 L -47.4329268292683 7.317073170731703 L -47.615853658536594 7.225609756097555 L -48.07317073170732 6.768292682926827 L -48.16463414634147 6.493902439024382 ZM -58.13414634146342 -12.713414634146346 L -57.76829268292683 -13.079268292682926 L -57.585365853658544 -13.353658536585371 L -57.585365853658544 -13.44512195121952 L -56.213414634146346 -14.817073170731703 L -55.9390243902439 -14.908536585365852 L -55.57317073170732 -15.274390243902445 L -54.75 -15.823170731707322 L -54.47560975609757 -15.91463414634147 L -54.29268292682927 -16.097560975609753 L -54.109756097560975 -16.097560975609753 L -53.46951219512195 -16.463414634146346 L -52.920731707317074 -16.646341463414643 L -52.73780487804878 -16.646341463414643 L -52.463414634146346 -16.829268292682926 L -52.1890243902439 -16.829268292682926 L -51.91463414634147 -17.012195121951223 L -51.1829268292683 -17.19512195121952 L -50.17682926829268 -17.378048780487802 L -46.335365853658544 -17.378048780487802 L -45.329268292682926 -17.19512195121952 L -44.78048780487805 -17.012195121951223 L -44.41463414634147 -16.920731707317074 L -44.140243902439025 -16.737804878048777 L -43.865853658536594 -16.737804878048777 L -43.59146341463415 -16.554878048780495 L -43.40853658536585 -16.554878048780495 L -42.493902439024396 -16.097560975609753 L -41.670731707317074 -15.548780487804876 L -41.03048780487805 -15.091463414634148 L -40.390243902439025 -14.542682926829272 L -40.20731707317073 -14.268292682926827 L -39.5670731707317 -13.71951219512195 L -38.92682926829268 -12.896341463414643 L -38.92682926829268 -12.804878048780495 L -38.46951219512195 -12.347560975609753 L -38.3780487804878 -12.073170731707322 L -38.10365853658537 -11.798780487804876 L -38.01219512195122 -11.524390243902445 L -37.829268292682926 -11.341463414634148 L -37.64634146341464 -10.975609756097569 L -37.64634146341464 -10.792682926829272 L -37.28048780487805 -10.152439024390247 L -36.82317073170732 -8.689024390243901 L -36.82317073170732 -5.9451219512195195 L -37.1890243902439 -4.66463414634147 L -37.554878048780495 -3.932926829268297 L -37.73780487804878 -3.75 L -37.829268292682926 -3.475609756097569 L -38.92682926829268 -2.4695121951219505 L -39.109756097560975 -2.1951219512195195 L -39.38414634146342 -2.0121951219512226 L -39.5670731707317 -2.0121951219512226 L -39.9329268292683 -1.6463414634146432 L -40.390243902439025 -1.4634146341463463 L -40.57317073170732 -1.2804878048780495 L -40.75609756097562 -1.2804878048780495 L -41.39634146341464 -0.91463414634147 L -41.579268292682926 -0.91463414634147 L -41.85365853658537 -0.7317073170731732 L -42.493902439024396 -0.5487804878048763 L -43.04268292682927 -0.3658536585365937 L -43.40853658536585 -0.27439024390244526 L -43.774390243902445 -0.27439024390244526 L -44.048780487804876 -0.18292682926829684 L -44.140243902439025 -0.09146341463414842 L -44.963414634146346 0 L -46.15243902439025 0.09146341463414842 L -48.16463414634147 0.09146341463414842 L -49.079268292682926 0 L -49.90243902439025 -0.18292682926829684 L -49.993902439024396 -0.27439024390244526 L -50.54268292682927 -0.27439024390244526 L -50.90853658536585 -0.3658536585365937 L -51.45731707317073 -0.5487804878048763 L -51.73170731707317 -0.7317073170731732 L -52.00609756097562 -0.7317073170731732 L -52.829268292682926 -1.0060975609756184 L -53.5609756097561 -1.371951219512198 L -53.743902439024396 -1.5548780487804947 L -54.01829268292683 -1.6463414634146432 L -54.201219512195124 -1.8292682926829258 L -54.47560975609757 -1.9207317073170742 L -54.75 -2.103658536585371 L -55.024390243902445 -2.378048780487802 L -55.298780487804876 -2.4695121951219505 L -55.57317073170732 -2.835365853658544 L -56.670731707317074 -3.8414634146341484 L -57.21951219512195 -4.481707317073173 L -57.585365853658544 -5.0304878048780495 L -57.67682926829268 -5.304878048780495 L -57.951219512195124 -5.579268292682926 L -57.951219512195124 -5.762195121951223 L -58.22560975609757 -6.036585365853654 L -58.22560975609757 -6.2195121951219505 L -58.40853658536585 -6.402439024390247 L -58.40853658536585 -6.676829268292678 L -58.59146341463415 -6.859756097560975 L -58.774390243902445 -7.682926829268297 L -58.774390243902445 -10.243902439024396 L -58.5 -11.798780487804876 L -58.3170731707317 -12.073170731707322 L -58.3170731707317 -12.256097560975618 L -58.13414634146342 -12.53048780487805 ZM -79.07926829268293 27.347560975609753 L -78.71341463414635 28.07926829268291 L -77.98170731707317 28.71951219512195 L -77.15853658536585 28.8109756097561 L -76.33536585365854 28.445121951219505 L -74.96341463414635 26.615853658536594 L -73.6829268292683 25.426829268292693 L -71.3048780487805 23.871951219512198 L -71.03048780487805 23.871951219512198 L -69.47560975609757 23.23170731707316 L -68.19512195121952 23.048780487804862 L -67.73780487804878 22.86585365853658 L -64.44512195121952 22.957317073170728 L -63.713414634146346 23.506097560975604 L -62.890243902439025 25.243902439024396 L -62.798780487804876 25.884146341463406 L -61.79268292682927 27.98780487804879 L -60.69512195121952 29.35975609756096 L -59.6890243902439 30.365853658536594 L -57.76829268292683 31.92073170731706 L -57.585365853658544 31.92073170731706 L -55.390243902439025 33.10975609756096 L -53.5609756097561 33.65853658536585 L -51.73170731707317 34.024390243902445 L -50.17682926829268 34.115853658536594 L -47.615853658536594 34.024390243902445 L -46.97560975609757 33.84146341463415 L -45.8780487804878 33.75 L -43.40853658536585 33.01829268292681 L -42.951219512195124 32.743902439024396 L -42.03658536585367 32.46951219512195 L -41.48780487804878 32.10365853658536 L -40.390243902439025 31.646341463414643 L -39.5670731707317 31.097560975609753 L -39.38414634146342 31.097560975609753 L -35.451219512195124 28.26219512195121 L -31.426829268292693 24.786585365853654 L -31.0609756097561 24.603658536585357 L -30.146341463414643 23.78048780487805 L -29.871951219512198 23.6890243902439 L -28.865853658536594 22.77439024390243 L -26.762195121951223 21.402439024390247 L -26.396341463414643 21.3109756097561 L -25.207317073170728 20.487804878048777 L -24.109756097560975 20.03048780487805 L -23.835365853658544 19.756097560975604 L -21.457317073170728 18.84146341463415 L -21.09146341463415 18.567073170731703 L -19.26219512195121 18.109756097560975 L -18.164634146341456 17.652439024390247 L -17.067073170731703 17.46951219512195 L -16.51829268292684 17.195121951219505 L -16.0609756097561 17.195121951219505 L -15.420731707317088 16.920731707317074 L -15.054878048780495 16.920731707317074 L -13.317073170731703 16.371951219512198 L -11.762195121951208 16.1890243902439 L -11.487804878048792 15.914634146341456 L -11.03048780487805 14.725609756097555 L -10.664634146341456 14.359756097560975 L -10.390243902439039 14.268292682926827 L -1.6097560975609895 14.08536585365853 L -1.518292682926841 13.993902439024382 L 1.5914634146341484 13.993902439024382 L 2.7804878048780495 14.176829268292678 L 6.164634146341456 14.176829268292678 L 21.896341463414643 13.810975609756099 L 22.71951219512195 13.628048780487802 L 25.646341463414643 13.445121951219505 L 29.03048780487805 13.445121951219505 L 30.676829268292693 13.353658536585357 L 30.768292682926813 13.262195121951223 L 36.256097560975604 13.170731707317074 L 39.457317073170714 12.987804878048777 L 39.54878048780486 12.896341463414629 L 49.335365853658544 12.53048780487805 L 49.42682926829269 12.439024390243901 L 52.35365853658536 12.439024390243901 L 55.1890243902439 12.256097560975604 L 55.28048780487805 12.164634146341456 L 58.84756097560975 12.073170731707307 L 59.67073170731706 11.890243902439025 L 62.963414634146346 11.798780487804876 L 65.25 11.61585365853658 L 65.34146341463415 11.524390243902431 L 67.71951219512195 11.432926829268297 L 68.26829268292681 11.25 L 69.91463414634146 11.25 L 71.1951219512195 10.975609756097555 L 72.10975609756096 10.975609756097555 L 72.65853658536585 10.792682926829272 L 73.66463414634146 10.792682926829272 L 74.3048780487805 10.609756097560975 L 74.9451219512195 10.609756097560975 L 76.40853658536585 10.243902439024382 L 78.78658536585365 9.96951219512195 L 79.33536585365854 9.512195121951223 L 79.33536585365854 9.329268292682926 L 79.51829268292681 9.146341463414629 L 79.51829268292681 8.597560975609753 L 78.96951219512195 8.231707317073173 L 78.0548780487805 8.231707317073173 L 74.39634146341464 7.408536585365852 L 73.1158536585366 7.317073170731703 L 71.01219512195121 6.859756097560975 L 68.8170731707317 6.676829268292678 L 67.53658536585365 6.402439024390247 L 66.34756097560975 6.402439024390247 L 64.97560975609755 6.128048780487802 L 63.96951219512195 6.128048780487802 L 63.23780487804876 5.945121951219505 L 60.676829268292664 5.762195121951223 L 57.5670731707317 5.3048780487804805 L 56.46951219512195 5.3048780487804805 L 55.73780487804876 5.121951219512198 L 54.82317073170731 5.121951219512198 L 50.98170731707316 4.573170731707322 L 48.96951219512195 4.481707317073173 L 45.493902439024396 4.024390243902431 L 44.304878048780495 4.024390243902431 L 42.84146341463415 3.75 L 41.65243902439025 3.75 L 40.82926829268291 3.567073170731703 L 38.8170731707317 3.4756097560975547 L 38.17682926829269 3.292682926829272 L 36.713414634146346 3.292682926829272 L 35.79878048780486 3.1097560975609753 L 31.134146341463406 2.83536585365853 L 28.024390243902445 2.4695121951219505 L 26.652439024390247 2.4695121951219505 L 24.64024390243901 2.1951219512195053 L 22.536585365853654 2.103658536585357 L 22.445121951219505 2.0121951219512226 L 17.323170731707307 1.646341463414629 L 14.213414634146346 1.5548780487804805 L 13.024390243902445 1.371951219512198 L 11.378048780487802 1.371951219512198 L 7.810975609756099 1.0060975609756042 L 5.981707317073159 1.0060975609756042 L 4.518292682926813 0.8231707317073216 L 3.9695121951219505 0.9146341463414558 L 3.6951219512195053 1.0975609756097526 L 1.5914634146341484 1.0975609756097526 L 0.21951219512195053 0.8231707317073216 L -2.1585365853658516 0.6402439024390247 L -6.365853658536594 0.5487804878048763 L -8.378048780487802 0.3658536585365795 L -8.46951219512195 0.27439024390243105 L -10.115853658536594 0.27439024390243105 L -10.481707317073187 -0.09146341463414842 L -10.481707317073187 -1.8292682926829258 L -10.939024390243901 -2.286585365853668 L -13.591463414634148 -3.1097560975609753 L -13.865853658536594 -3.292682926829272 L -14.231707317073187 -3.292682926829272 L -14.506097560975604 -3.475609756097569 L -15.786585365853654 -3.8414634146341484 L -16.243902439024396 -4.115853658536594 L -16.60975609756099 -4.115853658536594 L -17.34146341463415 -4.481707317073173 L -17.707317073170742 -4.481707317073173 L -18.621951219512198 -4.939024390243901 L -18.896341463414643 -4.939024390243901 L -22.371951219512198 -6.402439024390247 L -25.207317073170728 -7.957317073170728 L -26.670731707317074 -9.054878048780495 L -28.5 -10.701219512195124 L -32.34146341463415 -14.63414634146342 L -33.25609756097562 -15.365853658536594 L -34.6280487804878 -16.737804878048777 L -38.28658536585367 -19.57317073170732 L -39.201219512195124 -19.9390243902439 L -40.024390243902445 -20.487804878048777 L -41.03048780487805 -20.94512195121952 L -41.304878048780495 -20.94512195121952 L -42.1280487804878 -21.402439024390247 L -42.493902439024396 -21.402439024390247 L -42.76829268292683 -21.585365853658544 L -43.5 -21.67682926829268 L -44.23170731707317 -21.951219512195124 L -46.88414634146342 -22.22560975609757 L -49.35365853658537 -22.13414634146342 L -49.993902439024396 -21.951219512195124 L -51.274390243902445 -21.859756097560975 L -52.554878048780495 -21.585365853658544 L -52.829268292682926 -21.402439024390247 L -53.19512195121952 -21.402439024390247 L -55.9390243902439 -20.213414634146346 L -56.670731707317074 -19.66463414634147 L -57.3109756097561 -19.390243902439025 L -57.76829268292683 -18.932926829268297 L -57.951219512195124 -18.932926829268297 L -59.59756097560975 -17.286585365853654 L -61.335365853658544 -14.63414634146342 L -62.4329268292683 -12.347560975609753 L -62.890243902439025 -10.609756097560975 L -63.07317073170732 -10.335365853658544 L -63.4390243902439 -8.78048780487805 L -63.4390243902439 -8.323170731707322 L -63.6219512195122 -7.865853658536594 L -63.6219512195122 -7.1341463414634205 L -63.89634146341463 -5.487804878048777 L -63.89634146341463 -3.932926829268297 L -63.713414634146346 -2.0121951219512226 L -63.4390243902439 -1.371951219512198 L -62.615853658536594 -0.6402439024390247 L -61.701219512195124 -0.27439024390244526 L -56.670731707317074 2.560975609756099 L -54.84146341463415 3.3841463414634063 L -54.5670731707317 3.6585365853658516 L -54.5670731707317 5.670731707317074 L -54.29268292682927 6.128048780487802 L -54.29268292682927 8.048780487804876 L -54.65853658536585 8.323170731707322 L -54.9329268292683 8.323170731707322 L -55.84756097560975 8.871951219512198 L -56.03048780487805 8.871951219512198 L -60.420731707317074 11.524390243902431 L -61.609756097560975 12.073170731707307 L -62.615853658536594 12.713414634146332 L -63.53048780487805 14.359756097560975 L -64.07926829268293 15 L -64.9939024390244 15.182926829268297 L -66.91463414634147 16.006097560975604 L -67.1890243902439 16.006097560975604 L -70.75609756097562 17.83536585365853 L -72.67682926829268 19.11585365853658 L -75.60365853658537 21.67682926829268 L -77.4329268292683 23.78048780487805 L -78.98780487804878 26.34146341463415 Z" stroke-width="1" stroke="black" fill="none"/>
    </svg>